<svg xmlns="http://www.w3.org/2000/svg" version="1.1" viewBox="-5.0 -10.0 110.0 135.0">
 <path d="m95.09 83.91h-90.18c-0.80469 0-1.4531-0.65234-1.4531-1.4531v-6c0-2.3047 1.875-4.1836 4.1836-4.1836h84.727c2.3047 0 4.1836 1.875 4.1836 4.1836v6c-0.003906 0.80078-0.65625 1.4531-1.4609 1.4531zm-88.727-2.9102h87.273v-4.5469c0-0.70312-0.57031-1.2734-1.2734-1.2734l-84.727 0.003906c-0.70312 0-1.2734 0.57031-1.2734 1.2734z"/>
 <path d="m92.184 75.184h-84.367c-0.43359 0-0.84375-0.19141-1.1211-0.52734-0.27734-0.33594-0.39062-0.77344-0.30859-1.1992l5.8164-30.547c0.13672-0.6875 0.73438-1.1836 1.4336-1.1836h72.727c0.69922 0 1.2969 0.49609 1.4297 1.1836l5.8164 30.547c0.082031 0.42578-0.03125 0.86719-0.30859 1.1992-0.27344 0.33203-0.68359 0.52734-1.1172 0.52734zm-82.609-2.9102h80.848l-5.2656-27.637h-70.316z"/>
 <path d="m62.453 68.34c-2.7812 0-5.1133-1.9414-5.6836-4.5234h-13.535c-0.55859 2.582-2.8555 4.4648-5.6875 4.4648-3.207 0-5.8164-2.6055-5.8164-5.8086 0-1.1016 0.30859-2.1602 0.88672-3.0742-0.57813-0.91016-0.88672-1.9648-0.88672-3.0586 0-3.1719 2.6094-5.75 5.8164-5.75 2.7695 0 5.0312 1.8867 5.6484 4.5h13.609c0.61719-2.6133 2.8789-4.5 5.6484-4.5 3.2617 0 5.8164 2.4961 5.8164 5.6836 0 1.1133-0.30859 2.1797-0.89062 3.0977 0.57422 0.92578 0.89062 2.0117 0.89062 3.1211 0.003907 3.2227-2.6055 5.8477-5.8164 5.8477zm-2.9062-5.7578v0.007813c0 1.5938 1.2773 2.8398 2.9102 2.8398 1.6055 0 2.9102-1.3203 2.9102-2.9414 0-0.78906-0.3125-1.5508-0.85547-2.0938-0.27344-0.27344-0.42969-0.64453-0.42969-1.0312s0.15234-0.75781 0.42969-1.0312c0.55078-0.55078 0.85547-1.2812 0.85547-2.0586 0-1.582-1.25-2.7734-2.9102-2.7734-1.6328 0-2.9102 1.3359-2.9102 3.0469 0 0.80469-0.65234 1.4531-1.4531 1.4531h-16.184c-0.80469 0-1.4531-0.65234-1.4531-1.4531 0-1.707-1.2773-3.0469-2.9102-3.0469s-2.9102 1.2461-2.9102 2.8398c0 0.96875 0.46484 1.6367 0.85547 2.0273 0.27344 0.27344 0.42969 0.64453 0.42969 1.0312 0 0.38672-0.15234 0.75781-0.42969 1.0312-0.55078 0.55078-0.85547 1.2773-0.85547 2.043 0 1.5977 1.3047 2.9023 2.9102 2.9023 1.6328 0 2.9102-1.2188 2.9102-2.7773v-0.011718c-0.011719-0.070313-0.015625-0.14453-0.015625-0.21875 0-0.80469 0.65234-1.4531 1.4531-1.4531h16.215c0.80469 0 1.4531 0.65234 1.4531 1.4531 0 0.070312-0.007812 0.14453-0.015625 0.21484zm-1.0352 1.1797c-0.12891 0.039062-0.26172 0.058593-0.40234 0.058593 0.14062-0.003906 0.27734-0.023437 0.40234-0.058593zm-16.938 0.019531c0.10156 0.023438 0.20703 0.035156 0.31641 0.035156-0.10938 0-0.21484-0.011718-0.31641-0.035156zm17.953-1.1055c-0.054688 0.24219-0.16797 0.46484-0.32422 0.64453 0.16797-0.19141 0.28125-0.41797 0.32422-0.64453zm-19.055-0.003906c0.039063 0.20703 0.13672 0.41797 0.28516 0.59766-0.14062-0.17188-0.23828-0.375-0.28516-0.59766z"/>
 <path d="m79.375 44.637c-0.24609 0-0.5-0.0625-0.72656-0.19531-0.69531-0.40234-0.93359-1.293-0.53125-1.9883 0.63672-1.0977 0.97266-2.3555 0.97266-3.6328 0-4.0117-3.2617-7.2734-7.2734-7.2734-0.41406 0-0.83594 0.039063-1.2578 0.10938-0.39453 0.070312-0.80469-0.027344-1.125-0.26953-0.32031-0.24219-0.52734-0.60547-0.57031-1.0039-0.40234-3.6914-3.5117-6.4727-7.2305-6.4727-1.0039 0-1.9805 0.20312-2.8945 0.60156-0.36328 0.16016-0.77734 0.16016-1.1445 0.007812-0.36719-0.15625-0.65234-0.45312-0.79688-0.82422-1.0664-2.8086-3.7969-4.6914-6.8008-4.6914s-5.7344 1.8867-6.8008 4.6914c-0.14062 0.37109-0.42969 0.66797-0.79687 0.82422-0.36719 0.15625-0.78125 0.15234-1.1445-0.007812-0.91797-0.39844-1.8906-0.60156-2.8945-0.60156-3.7188 0-6.8242 2.7812-7.2305 6.4727-0.042968 0.39844-0.25 0.76172-0.57031 1.0039-0.32031 0.24219-0.72656 0.33984-1.125 0.26953-0.42188-0.074219-0.84375-0.10938-1.2578-0.10938-4.0117 0-7.2734 3.2617-7.2734 7.2734 0 1.2812 0.33594 2.5391 0.97266 3.6328 0.40234 0.69531 0.16406 1.5859-0.53125 1.9883s-1.5859 0.16406-1.9883-0.53125c-0.88281-1.5391-1.3555-3.3008-1.3555-5.0938 0-5.6133 4.5664-10.184 10.184-10.184 0.10547 0 0.21094 0 0.32031 0.003907 1.1328-4.4453 5.1484-7.6406 9.8633-7.6406 0.92578 0 1.8359 0.125 2.7148 0.36719 1.7695-3.1992 5.1953-5.2734 8.918-5.2734s7.1484 2.0703 8.9219 5.2773c0.87891-0.24219 1.7891-0.36719 2.7148-0.36719 4.7148 0 8.7266 3.1992 9.8633 7.6406 0.10547-0.003906 0.21484-0.003906 0.32031-0.003906 5.6133 0 10.184 4.5664 10.184 10.184 0 1.793-0.47266 3.5547-1.3633 5.0938-0.27344 0.46094-0.76172 0.72266-1.2656 0.72266z"/>
 <path d="m38.363 33c-0.37109 0-0.74609-0.14062-1.0273-0.42578-0.56641-0.56641-0.56641-1.4883 0-2.0586l1.4531-1.4531c0.56641-0.56641 1.4883-0.56641 2.0586 0 0.56641 0.56641 0.56641 1.4883 0 2.0586l-1.4531 1.4531c-0.28516 0.28516-0.66016 0.42578-1.0312 0.42578z"/>
 <path d="m46.363 37c-0.37109 0-0.74609-0.14062-1.0273-0.42578-0.56641-0.56641-0.56641-1.4883 0-2.0586l1.4531-1.4531c0.56641-0.56641 1.4883-0.56641 2.0586 0 0.56641 0.56641 0.56641 1.4883 0 2.0586l-1.4531 1.4531c-0.28516 0.28516-0.66016 0.42578-1.0312 0.42578z"/>
 <path d="m56.363 33c-0.37109 0-0.74609-0.14062-1.0273-0.42578-0.56641-0.56641-0.56641-1.4883 0-2.0586l1.4531-1.4531c0.56641-0.56641 1.4883-0.56641 2.0586 0 0.56641 0.56641 0.56641 1.4883 0 2.0586l-1.4531 1.4531c-0.28516 0.28516-0.66016 0.42578-1.0312 0.42578z"/>
 <path d="m62.91 37.727c-0.37109 0-0.74609-0.14062-1.0273-0.42578-0.56641-0.56641-0.56641-1.4883 0-2.0586l1.4531-1.4531c0.56641-0.56641 1.4883-0.56641 2.0586 0 0.56641 0.56641 0.56641 1.4883 0 2.0586l-1.4531 1.4531c-0.28906 0.28516-0.66016 0.42578-1.0312 0.42578z"/>
<text x="0.0" y="117.5" font-size="5.0" font-weight="bold" font-family="Arbeit Regular, Helvetica, Arial-Unicode, Arial, Sans-serif" fill="#000000">Created by SAM Designs</text><text x="0.0" y="122.5" font-size="5.0" font-weight="bold" font-family="Arbeit Regular, Helvetica, Arial-Unicode, Arial, Sans-serif" fill="#000000">from Noun Project</text></svg>