<svg xmlns="http://www.w3.org/2000/svg" xmlns:xlink="http://www.w3.org/1999/xlink" version="1.1" x="0px" y="0px" viewBox="0 0 80 100" enable-background="new 0 0 80 80" xml:space="preserve"><g><path d="M66.355,12.653c-3.084-2.926-6.279-2.849-6.533-2.83h-1.179c-0.002,0-0.003,0-0.005,0c-0.004,0-0.008,0-0.012,0H21.479   c-8.671,0-13.255,9.944-13.255,28.757v29.822c0,0.025,0.006,0.049,0.007,0.074c0.002,0.061,0.01,0.12,0.019,0.181   c0.008,0.058,0.017,0.114,0.031,0.17c0.013,0.053,0.031,0.104,0.049,0.156c0.021,0.06,0.042,0.118,0.069,0.175   c0.021,0.045,0.046,0.088,0.071,0.132c0.035,0.06,0.071,0.117,0.112,0.172c0.013,0.018,0.021,0.037,0.035,0.054   c0.015,0.019,0.034,0.031,0.049,0.049c0.058,0.066,0.12,0.127,0.188,0.185c0.032,0.026,0.062,0.054,0.095,0.078   c0.072,0.054,0.149,0.099,0.229,0.141c0.03,0.017,0.059,0.035,0.09,0.049c0.098,0.045,0.2,0.078,0.306,0.104   c0.016,0.004,0.03,0.011,0.045,0.014C9.744,70.163,9.87,70.179,10,70.179c0.187,0,0.363-0.037,0.533-0.091   c0.026-0.008,0.051-0.014,0.077-0.023c0.172-0.063,0.329-0.151,0.471-0.262c0.011-0.008,0.023-0.01,0.034-0.019l3.846-3.102   l3.846,3.102c0.651,0.524,1.579,0.522,2.229,0l3.841-3.101l3.837,3.1c0.65,0.525,1.579,0.525,2.23,0l3.84-3.1l3.838,3.1   c0.65,0.525,1.58,0.525,2.23,0l3.839-3.1l3.838,3.1c0.02,0.016,0.042,0.025,0.062,0.04c0.054,0.041,0.11,0.077,0.169,0.11   c0.044,0.025,0.087,0.05,0.133,0.071c0.057,0.027,0.115,0.049,0.175,0.07c0.051,0.017,0.102,0.034,0.153,0.046   c0.057,0.015,0.115,0.024,0.174,0.033c0.058,0.008,0.114,0.014,0.173,0.017c0.025,0.001,0.051,0.008,0.077,0.008   c0.012,0,0.022,0,0.033-0.001c0.025,0,0.048-0.007,0.073-0.009c0.063-0.004,0.124-0.012,0.186-0.022   c0.057-0.009,0.111-0.019,0.165-0.033s0.106-0.033,0.158-0.053c0.058-0.021,0.113-0.043,0.168-0.069   c0.046-0.022,0.09-0.05,0.135-0.076c0.056-0.034,0.109-0.068,0.161-0.108c0.037-0.028,0.071-0.06,0.107-0.092   c0.054-0.049,0.104-0.1,0.152-0.154c0.013-0.016,0.029-0.027,0.042-0.043c0.015-0.019,0.023-0.039,0.038-0.058   c0.044-0.06,0.085-0.121,0.121-0.187c0.022-0.039,0.044-0.079,0.063-0.12c0.029-0.062,0.054-0.124,0.075-0.188   c0.017-0.049,0.03-0.097,0.042-0.146c0.015-0.06,0.025-0.119,0.034-0.182c0.008-0.058,0.012-0.114,0.014-0.173   c0.001-0.031,0.009-0.061,0.008-0.093c-0.003-0.146-0.123-6.788-0.254-14.642h7c0.053,0,0.106-0.003,0.159-0.008   c0.549-0.049,13.45-1.462,13.45-23.425C71.775,22.002,69.951,16.066,66.355,12.653z M43.576,63.021l-3.839,3.1l-3.838-3.1   c-0.65-0.525-1.579-0.525-2.23,0l-3.839,3.1l-3.837-3.1c-0.65-0.525-1.579-0.524-2.23-0.001l-3.842,3.101l-3.845-3.101   c-0.65-0.523-1.578-0.523-2.229,0l-2.07,1.67V38.581c0-9.414,1.261-25.207,9.704-25.207l30.29-0.001   c-3.205,4.025-4.492,10.686-4.492,15.74c0,5.212,0.369,26.709,0.525,35.521l-1.996-1.612   C45.156,62.496,44.227,62.496,43.576,63.021z M58.063,50.179h-6.956c-0.143-8.703-0.279-17.906-0.279-21.065   c0-6.536,2.423-15.74,7.811-15.74c0.003,0,0.006-0.001,0.009-0.001h1.243c0.059,0,2.098-0.025,4.107,1.939   c1.929,1.884,4.227,6.014,4.227,14.985C68.225,48.321,58.955,50.055,58.063,50.179z"/><path d="M59.467,21.184c-3.495,0-5.324,5.061-5.324,10.06s1.829,10.06,5.324,10.06s5.324-5.061,5.324-10.06   S62.962,21.184,59.467,21.184z M59.467,37.733c-0.553-0.323-1.773-2.533-1.773-6.49c0-3.958,1.221-6.167,1.773-6.49   c0.553,0.322,1.773,2.531,1.773,6.49C61.24,35.201,60.02,37.411,59.467,37.733z"/></g><text x="0" y="95" fill="#000000" font-size="5px" font-weight="bold" font-family="'Helvetica Neue', Helvetica, Arial-Unicode, Arial, Sans-serif">Created by Yeong Rong Kim</text><text x="0" y="100" fill="#000000" font-size="5px" font-weight="bold" font-family="'Helvetica Neue', Helvetica, Arial-Unicode, Arial, Sans-serif">from the Noun Project</text></svg>