<svg xmlns="http://www.w3.org/2000/svg" version="1.1" viewBox="-5.0 -10.0 110.0 135.0">
 <path d="m58.496 43.359c0-0.23438-0.070313-1-0.96484-1h-2.8359c-2.0469 0-3.1523-1.6406-3.1523-3.1836s1.1055-3.1836 3.1523-3.1836h0.32422v-1.2578c0-0.60547 0.48828-1.0938 1.0938-1.0938s1.0938 0.48828 1.0938 1.0938v1.2578h2.3828c0.60547 0 1.0938 0.48828 1.0938 1.0938 0 0.60547-0.48828 1.0938-1.0938 1.0938h-4.8945c-0.89453 0-0.96484 0.76172-0.96484 0.99609s0.070312 0.99609 0.96484 0.99609h2.8359c2.0469 0 3.1523 1.6406 3.1523 3.1875s-1.1055 3.1875-3.1523 3.1875h-0.32422v1.2578c0 0.60547-0.48828 1.0938-1.0938 1.0938s-1.0938-0.48828-1.0938-1.0938v-1.2578h-2.3828c-0.60547 0-1.0938-0.48828-1.0938-1.0938s0.48828-1.0938 1.0938-1.0938h4.8945c0.89453 0 0.96484-0.76562 0.96484-1zm29.762 8.793c-0.019531 1.8125-0.74219 3.5039-2.0273 4.7656l-13.879 13.574c-1.6992 1.6641-3.7695 2.5078-6.1523 2.5078l-20.711 0.011719-2.2734 2.2734 3.1875 3.1875c0.20312 0.20312 0.32031 0.48438 0.32031 0.77344 0 0.28906-0.11328 0.56641-0.32031 0.77344l-9.6641 9.6602c-0.21484 0.21484-0.49219 0.32031-0.77344 0.32031-0.27734 0-0.55859-0.10547-0.77344-0.32031l-23.133-23.133c-0.20312-0.20312-0.32031-0.48438-0.32031-0.77344 0-0.28906 0.11328-0.56641 0.32031-0.77344l9.6602-9.6602c0.42578-0.42578 1.1211-0.42578 1.5469 0l2.6797 2.6797 7.3477-6.6914v-17.363l-2.5703 1.6953c-0.18359 0.12109-0.39062 0.17969-0.60156 0.17969-0.17969 0-0.35547-0.042969-0.51953-0.13281-0.35547-0.19141-0.57422-0.5625-0.57422-0.96484v-6.5039c0-0.36719 0.18359-0.71094 0.49219-0.91406l25.988-17.148c0.36328-0.24219 0.83984-0.24219 1.2031 0l25.996 17.148c0.30859 0.20312 0.49219 0.54688 0.49219 0.91406v6.5039c0 0.40234-0.22266 0.77344-0.57422 0.96484-0.35547 0.19141-0.78516 0.17188-1.1211-0.050781l-2.5703-1.6953v11.844c0.82422-0.33594 1.7148-0.50391 2.6328-0.49219 1.8125 0.019531 3.5078 0.74219 4.7656 2.0273 1.2617 1.2891 1.9453 2.9961 1.9258 4.8086zm-44.172 27.094-21.59-21.586-8.1133 8.1133 21.586 21.586zm-12.871-46.531 2.5391-1.6758c0.019532-0.011718 0.035156-0.023437 0.054688-0.035156l21.699-14.324c0.18359-0.12109 0.39453-0.17969 0.60156-0.17969 0.21094 0 0.42188 0.058594 0.60156 0.17969l21.691 14.316c0.023437 0.015625 0.050781 0.03125 0.074218 0.050781l2.5312 1.6719v-3.8828l-24.902-16.43-24.898 16.43v3.8789zm4.2656-0.19531v17.262c2.1836-1.3242 4.3789-2.0234 6.543-2.0742 0.58984-0.015625 1.1797 0.023438 1.7656 0.10156-1.0586-2-1.6289-4.2461-1.6289-6.543 0-7.6914 6.2578-13.953 13.953-13.953 7.6914 0 13.953 6.2578 13.953 13.953 0 4.0586-1.7539 7.8711-4.7656 10.504 1.3477 0.98828 2.2812 2.5117 2.4844 4.2539l8.9648-8.7734v-14.727l-20.637-13.617-20.633 13.617zm14.66 18.059h11.527c0.48828 0 0.96094 0.058594 1.4141 0.16406 3.0117-2.2148 4.793-5.7227 4.793-9.4805 0-6.4883-5.2773-11.766-11.766-11.766s-11.766 5.2773-11.766 11.766c0 2.7305 0.94922 5.375 2.6797 7.4727 1.0469 0.46094 2.0859 1.0742 3.1133 1.8398zm35.93 1.5508c0.015626-1.2266-0.44922-2.3828-1.3008-3.2539-0.85156-0.87109-1.9961-1.3594-3.2266-1.3711-1.2227-0.007812-2.3867 0.44922-3.2578 1.3008l-11.348 11.109c-1.0781 1.7852-3.0391 2.9805-5.2734 2.9805h-16.629c-0.60547 0-1.0938-0.48828-1.0938-1.0938s0.48828-1.0938 1.0938-1.0938h16.629c1.4805 0 2.7695-0.8125 3.4531-2.0156 0.125-0.21875 0.23047-0.45312 0.30859-0.69141 0-0.003906 0.003907-0.003906 0.003907-0.007812 0.078124-0.23438 0.13281-0.47266 0.16797-0.71875 0.003906-0.015626 0.003906-0.03125 0.007813-0.050782 0.007812-0.0625 0.015625-0.125 0.019531-0.1875 0-0.019531 0.003906-0.039062 0.003906-0.058594 0.003906-0.078124 0.007813-0.15625 0.007813-0.23828 0-2.1875-1.7812-3.9688-3.9688-3.9688h-11.898c-0.24219 0-0.48047-0.082031-0.67188-0.23047-4.6836-3.6484-9.3672-3.5195-14.324 0.40234l-7.2734 6.625 14.176 14.176 2.5938-2.5938c0.20312-0.20313 0.48438-0.32031 0.77344-0.32031l21.164-0.011719c1.8164 0 3.3242-0.61719 4.6211-1.8828l13.879-13.574c0.87109-0.85156 1.3594-1.9961 1.3711-3.2266z"/>
<text x="0.0" y="117.5" font-size="5.0" font-weight="bold" font-family="Arbeit Regular, Helvetica, Arial-Unicode, Arial, Sans-serif" fill="#000000">Created by kliwir art</text><text x="0.0" y="122.5" font-size="5.0" font-weight="bold" font-family="Arbeit Regular, Helvetica, Arial-Unicode, Arial, Sans-serif" fill="#000000">from Noun Project</text></svg>