<svg xmlns:dc="http://purl.org/dc/elements/1.1/" xmlns:cc="http://creativecommons.org/ns#" xmlns:rdf="http://www.w3.org/1999/02/22-rdf-syntax-ns#" xmlns:svg="http://www.w3.org/2000/svg" xmlns="http://www.w3.org/2000/svg" xmlns:sodipodi="http://sodipodi.sourceforge.net/DTD/sodipodi-0.dtd" xmlns:inkscape="http://www.inkscape.org/namespaces/inkscape" version="1.1" x="0px" y="0px" viewBox="0 0 100 125"><g transform="translate(0,-952.36218)"><path style="text-indent:0;text-transform:none;direction:ltr;block-progression:tb;baseline-shift:baseline;color:#000000;enable-background:accumulate;" d="m 67.875,957.36307 c -0.900752,-0.005 -1.835976,0.023 -2.78125,0.0937 -1.890549,0.14151 -3.843267,0.4138 -5.78125,0.84375 -4.979501,1.10473 -8.878502,3.8989 -11.59375,6.53118 -0.199369,0.19328 -0.375916,0.40202 -0.5625,0.59375 C 47.035338,964.43572 46.966,963.43562 47,962.45677 A 3.0003,3.0002705 0 0 0 44.0625,959.30055 3.0003,3.0002705 0 0 0 41,962.23802 c -0.185404,5.33775 1.447797,10.26279 3.03125,14.15611 0.258963,0.63672 0.49849,1.20145 0.75,1.78123 -3.244783,-1.59924 -7.219201,-2.81247 -11.78125,-2.81247 -7.353429,0 -14.163298,2.17602 -19.125,6.78118 C 8.9132979,986.74924 6,993.70794 6,1002.3626 c 0,8.6263 3.7225341,19.277 9.65625,28.2497 5.933716,8.9728 14.257203,16.4841 24.25,16.7499 a 3.0003,3.0002705 0 0 0 0.09375,0 c 3.118804,0 5.350379,-1.5601 6.75,-2.5625 1.399621,-1.0024 1.964607,-1.4375 3.25,-1.4375 1.285393,0 1.850379,0.4351 3.25,1.4375 1.399621,1.0024 3.631196,2.5625 6.75,2.5625 a 3.0003,3.0002705 0 0 0 0.09375,0 c 9.992797,-0.2658 18.316284,-7.7771 24.25,-16.7499 C 90.277466,1021.6396 94,1010.9889 94,1002.3626 94,993.70794 91.086702,986.74924 86.125,982.14407 81.163298,977.53891 74.353429,975.36289 67,975.36289 c -0.09488,0 -0.18687,-0.001 -0.28125,0 2.690098,-1.11449 4.979215,-2.63365 6.78125,-4.28121 2.627275,-2.40206 4.5,-4.87524 4.5,-8.06242 0,-2.09564 -1.60981,-3.68174 -3,-4.37496 -1.39019,-0.69321 -2.877816,-0.99037 -4.53125,-1.15624 -0.826717,-0.0829 -1.692998,-0.12023 -2.59375,-0.12499 z m 0,6.03119 c 0.726763,-3.5e-4 1.394734,0.002 2,0.0625 0.853623,0.0856 1.263003,0.23316 1.71875,0.37499 -0.349983,0.70874 -0.919142,1.70998 -2.125,2.81247 -1.8644,1.70458 -4.64505,3.34081 -8,4.09371 -3.401431,0.76334 -7.137022,0.73492 -9.875,0.34375 -0.507991,-0.0726 -0.727542,-0.191 -1.15625,-0.28125 0.452138,-0.54998 0.805903,-1.04394 1.4375,-1.65623 2.143713,-2.07821 5.236218,-4.18915 8.75,-4.9687 1.643184,-0.36455 3.337136,-0.60011 4.9375,-0.71874 0.800182,-0.0593 1.585737,-0.0622 2.3125,-0.0625 z m -17.03125,13.65611 c 1.853068,0.25763 3.990897,0.3708 6.25,0.28125 -1.87121,0.75924 -3.527882,1.68014 -4.96875,2.62497 -0.140141,-0.32134 -0.285743,-0.6496 -0.4375,-0.99999 -0.260714,-0.60195 -0.550443,-1.24123 -0.84375,-1.90623 z M 33,981.36283 c 6.743957,0 12.929882,4.14854 14.875,6.09369 a 3.0003,3.0002705 0 0 0 4.25,0 c 1.945118,-1.94515 8.131043,-6.09369 14.875,-6.09369 6.170401,0 11.37391,1.79291 15.03125,5.18745 3.65734,3.39453 5.96875,8.46716 5.96875,15.81232 0,6.8057 -3.32777,16.8798 -8.65625,24.9373 -5.320918,8.046 -12.457176,13.8616 -19.40625,14.0623 -1.260769,-0.016 -1.850537,-0.4576 -3.21875,-1.4374 -1.394338,-0.9987 -3.611238,-2.5625 -6.71875,-2.5625 -3.107512,0 -5.324412,1.5638 -6.71875,2.5625 -1.368213,0.9798 -1.957981,1.4211 -3.21875,1.4374 -6.949074,-0.2007 -14.085332,-6.0163 -19.40625,-14.0623 C 15.32777,1019.2424 12,1009.1683 12,1002.3626 c 0,-7.34516 2.31141,-12.41779 5.96875,-15.81232 3.65734,-3.39454 8.860849,-5.18745 15.03125,-5.18745 z m -2,2.99997 c -4.441737,0 -8.67372,1.83121 -11.5625,5.3437 C 16.54872,993.21898 15,998.21354 15,1004.3626 a 3.0003,3.0002705 0 1 0 6,0 c 0,-5.14412 1.282632,-8.67949 3.0625,-10.84364 1.779868,-2.16415 4.053827,-3.15622 6.9375,-3.15622 a 3.0003,3.0002705 0 1 0 0,-5.99994 z m 12.65625,33.9684 a 3.0003,3.0002705 0 0 0 -1.78125,5.1562 c 0.478394,0.4769 1.578154,1.5503 1.90625,1.9062 a 3.008127,3.0080974 0 1 0 4.4375,-4.0624 c -0.663442,-0.7199 -1.744222,-1.7452 -2.09375,-2.0937 a 3.0003,3.0002705 0 0 0 -2.46875,-0.9063 z m 12,0 a 3.0003,3.0002705 0 0 0 -1.78125,0.9063 c -0.349528,0.3485 -1.430308,1.3738 -2.09375,2.0937 a 3.008127,3.0080974 0 1 0 4.4375,4.0624 c 0.328096,-0.3559 1.427856,-1.4293 1.90625,-1.9062 a 3.0003,3.0002705 0 0 0 -2.46875,-5.1562 z" fill="#000000" fill-opacity="1" fill-rule="nonzero" stroke="none" marker="none" visibility="visible" display="inline" overflow="visible"/></g><text x="0" y="115" fill="#000000" font-size="5px" font-weight="bold" font-family="'Helvetica Neue', Helvetica, Arial-Unicode, Arial, Sans-serif">Created by hafiudin</text><text x="0" y="120" fill="#000000" font-size="5px" font-weight="bold" font-family="'Helvetica Neue', Helvetica, Arial-Unicode, Arial, Sans-serif">from the Noun Project</text></svg>