<svg xmlns:dc="http://purl.org/dc/elements/1.1/" xmlns:cc="http://creativecommons.org/ns#" xmlns:rdf="http://www.w3.org/1999/02/22-rdf-syntax-ns#" xmlns:svg="http://www.w3.org/2000/svg" xmlns="http://www.w3.org/2000/svg" xmlns:sodipodi="http://sodipodi.sourceforge.net/DTD/sodipodi-0.dtd" xmlns:inkscape="http://www.inkscape.org/namespaces/inkscape" viewBox="0 0 32 40.00000125" version="1.1" x="0px" y="0px"><g transform="translate(0,-1020.3622)"><path d="m 15.9997,1026.3627 c -4.6945,0 -8.5,3.105 -8.5,6.9375 0,1.4062 0.5342,2.7696 1.5019,3.918 1.3186,-2.2343 3.9859,-3.7325 6.9942,-3.7325 3.0098,0 5.6819,1.5 7.0019,3.7364 0.968,-1.1496 1.5003,-2.5146 1.502,-3.9219 0,-3.8325 -3.8056,-6.9375 -8.5,-6.9375 z m -3,3.5 a 1.0000002,1.0000002 0 0 1 1,1 1.0000002,1.0000002 0 0 1 -1,1 1.0000002,1.0000002 0 0 1 -1,-1 1.0000002,1.0000002 0 0 1 1,-1 z m 6,0 a 1.0000002,1.0000002 0 0 1 1,1 1.0000002,1.0000002 0 0 1 -1,1 1.0000002,1.0000002 0 0 1 -1,-1 1.0000002,1.0000002 0 0 1 1,-1 z" style="opacity:1;fill:#000000;fill-opacity:1;stroke:none;stroke-width:0.99999994;stroke-linecap:round;stroke-linejoin:round;stroke-miterlimit:4;stroke-dasharray:none;stroke-dashoffset:0;stroke-opacity:1"/><path d="m 9.8727,1026.3666 c -0.1795,-0.01 -0.3484,-0 -0.498,0.01 -1.6838,0.1508 -3.2735,0.6774 -4.752,1.6465 -0.4544,0.3023 -0.8619,0.6763 -1.1894,1.0957 -0.8854,0.9663 -0.51,1.6131 0.5957,2.1934 0.7104,0.3711 1.5611,0.5777 2.3769,0.5488 0.1164,-0 0.2602,-0.038 0.4024,-0.07 0.5275,-2.2631 2.2144,-4.1331 4.4882,-5.2324 -0.4792,-0.09 -0.9787,-0.1705 -1.4238,-0.1895 z m 12.2559,0 c -0.4433,0.019 -0.9425,0.098 -1.4199,0.1875 2.2758,1.0995 3.965,2.9715 4.4921,5.2363 0.1394,0.031 0.2823,0.065 0.3965,0.068 0.8158,0.03 1.6646,-0.1776 2.375,-0.5488 1.1057,-0.5803 1.4792,-1.227 0.5938,-2.1934 -0.3273,-0.4193 -0.7332,-0.7933 -1.1875,-1.0957 -1.4787,-0.9691 -3.0682,-1.4956 -4.752,-1.6464 -0.15,-0.015 -0.3185,-0.015 -0.498,-0.01 z" style="" fill="#000000" fill-rule="evenodd" stroke="none"/><path d="m 15.9997,1034.3627 a 7.0000009,6.0000007 0 0 0 -7,6 7.0000009,6.0000007 0 0 0 7,6 7.0000009,6.0000007 0 0 0 7,-6 7.0000009,6.0000007 0 0 0 -7,-6 z m -3.4805,5.0664 a 1.4583238,1.0213887 75.065885 0 1 1.207,1.1328 1.4583238,1.0213887 75.065885 0 1 -0.5761,1.7012 1.4583238,1.0213887 75.065885 0 1 -1.377,-1.1016 1.4583238,1.0213887 75.065885 0 1 0.5742,-1.7011 1.4583238,1.0213887 75.065885 0 1 0.1719,-0.031 z m 6.959,0 a 1.0213887,1.4583238 14.934115 0 1 0.1719,0.031 1.0213887,1.4583238 14.934115 0 1 0.5761,1.7012 1.0213887,1.4583238 14.934115 0 1 -1.3789,1.1015 1.0213887,1.4583238 14.934115 0 1 -0.5742,-1.7011 1.0213887,1.4583238 14.934115 0 1 1.2051,-1.1328 z" style="" fill="#000000" fill-opacity="1" stroke="none"/></g><text x="0" y="47.000001" fill="#000000" font-size="5px" font-weight="bold" font-family="'Helvetica Neue', Helvetica, Arial-Unicode, Arial, Sans-serif">Created by P Thanga Vignesh</text><text x="0" y="52.000001" fill="#000000" font-size="5px" font-weight="bold" font-family="'Helvetica Neue', Helvetica, Arial-Unicode, Arial, Sans-serif">from the Noun Project</text></svg>