<svg xmlns:rdf="http://www.w3.org/1999/02/22-rdf-syntax-ns#" xmlns="http://www.w3.org/2000/svg" xmlns:cc="http://creativecommons.org/ns#" xmlns:dc="http://purl.org/dc/elements/1.1/" version="1.1" x="0px" y="0px" viewBox="0 0 100 125"><g transform="translate(0,-952.36218)"><path style="baseline-shift:baseline;block-progression:tb;color:#000000;direction:ltr;text-indent:0;enable-background:accumulate;text-transform:none;" fill="#000" d="m21.656,959.55c-2.8723,0-5.1875,2.3152-5.1875,5.1875v64.469c0,2.8723,2.3152,5.1563,5.1875,5.1563h10.062a0.60006,0.60006,0,0,1,0.5625,0h45.562a0.60006,0.60006,0,0,1,0.5625,0c2.8723,0,5.125-2.284,5.125-5.1563v-64.469c0-2.8723-2.2527-5.1875-5.125-5.1875h-56.75zm20.188,5.125,15.25,0c1.2195,0,2.1875,0.96797,2.1875,2.1875v0.3125c0,1.2195-0.96798,2.1875-2.1875,2.1875h-15.25c-1.2195,0-2.1875-0.96797-2.1875-2.1875v-0.3125c0-1.2195,0.96798-2.1875,2.1875-2.1875zm-16.062,11.75,48.438,0c1.7272,0,3.0625,1.3666,3.0625,3.0938v25.219c0,1.7272-1.3353,3.125-3.0625,3.125h-48.438c-1.7272,0-3.125-1.3978-3.125-3.125v-25.219c0-1.7272,1.3978-3.0938,3.125-3.0938zm1.9375,38.656c3.3069,0,6,2.6874,6,6.0313s-2.6931,6.0625-6,6.0625-5.9375-2.7186-5.9375-6.0625,2.6306-6.0313,5.9375-6.0313zm44.625,0c3.3069,0,5.9375,2.6874,5.9375,6.0313s-2.6306,6.0625-5.9375,6.0625-6-2.7186-6-6.0625,2.6931-6.0313,6-6.0313zm-49.812,20.469,0,7.5937c0,1.1341,0.88924,2.0313,2,2.0313h4.875c1.1108,0,2-0.8972,2-2.0313v-7.5937h-8.875zm46.125,0,0,7.5937c0,1.1341,0.82674,2.0313,1.9375,2.0313h4.9375c1.1108,0,2-0.8972,2-2.0313v-7.5937h-8.875z"/></g><text x="0" y="115" fill="#000000" font-size="5px" font-weight="bold" font-family="'Helvetica Neue', Helvetica, Arial-Unicode, Arial, Sans-serif">Created by Mansion@design</text><text x="0" y="120" fill="#000000" font-size="5px" font-weight="bold" font-family="'Helvetica Neue', Helvetica, Arial-Unicode, Arial, Sans-serif">from the Noun Project</text></svg>