<svg xmlns="http://www.w3.org/2000/svg" version="1.1" viewBox="-5.0 -10.0 110.0 135.0">
 <path d="m80.059 43.887c-0.90234-1.3008-2.4062-2.2031-4.0078-2.4062-12.223-1.3984-14.426-3.1055-16.332-9.418-0.10156-0.19922-0.19922-0.5-0.30078-0.90234-0.10156-0.19922-0.10156-0.5-0.19922-0.70312 0-0.19922-0.10156-0.40234-0.19922-0.60156-0.60156-2.1055-1.9023-3.9062-3.6055-5.1094 5.6094-0.60156 10.02-5.5117 10.02-11.223 0-6.2109-5.1094-11.324-11.324-11.324-6.2148 0.003906-11.324 5.1172-11.324 11.328 0 4.0078 2.1055 7.4141 5.2109 9.5195-1.1016 0.10156-2.1055 0.19922-3.207 0.30078-8.8164 1.3008-14.527 4.4102-17.734 9.918-3.0078 5.2109-3.5078 11.926-3.8086 18.938-0.10156 1.6016 0.5 3.1055 1.6016 4.3086 1.1016 1.2031 2.6055 1.9023 4.207 2.0039h0.30078c3.207 0 5.8125-2.6055 6.0117-5.7109 0.40234-9.6211 1.1016-13.328 3.707-15.23-0.70312 5.3125-1.2031 10.723-1.5039 16.031 0 0-0.10156 0.40234-0.19922 0.60156-1.1016 3.6055-2.1055 8.418-3.1055 15.129-2.3047 6.4141-5.6094 11.324-7.9141 14.527l-0.40234 0.60156c-0.19922 0.30078-0.40234 0.60156-0.60156 0.80078-0.30078 0.5-0.60156 0.90234-0.90234 1.4023-1.0039 1.5039-1.3008 3.4062-0.90234 5.1094 0.40234 1.9023 1.5039 3.4062 3.207 4.5078 1.2031 0.70312 2.4062 1.1016 3.8086 1.1016 2.4062 0 4.6094-1.2031 5.9102-3.207 0.10156-0.19922 0.30078-0.40234 0.40234-0.60156 0.19922-0.30078 0.40234-0.60156 0.60156-0.80078l0.10156-0.10156c2.1055-3.0078 6.7148-9.5195 9.918-18.336 0.80078 1.3008 1.6016 2.707 2.5039 4.1094 1.5039 4.4102 2.2031 8.418 2.707 10.52l0.19922 0.80078c0.10156 0.70312 0.30078 1.3008 0.30078 1.7031v0.19922c0.80078 3.1055 3.6055 5.3125 6.7148 5.3125 0.5 0 1.1016 0 1.9023-0.30078 1.7031-0.5 3.207-1.6016 4.1094-3.207 0.90234-1.6016 1.2031-3.5078 0.80078-5.3125 0-0.10156 0-0.30078-0.10156-0.40234-0.10156-0.40234-0.19922-1.0039-0.30078-1.6016-1.1016-5.4102-3.5078-17.938-12.023-29.359 0.70312-2.9062 1.3008-5.8125 1.8047-8.8164 4.5078 3.3047 10.422 4.6094 18.137 5.5117h0.19922 0.5c2.9062 0 5.5117-2.2031 6.0117-5.1094 0.30469-1.5938 0.003907-3.1953-0.89844-4.5zm-35.27-30.359c0-5.1094 4.207-9.3203 9.3203-9.3203 5.1094 0 9.3203 4.207 9.3203 9.3203 0 5.1094-4.207 9.3203-9.3203 9.3203-5.1133-0.003906-9.3203-4.2109-9.3203-9.3203zm-9.0156 78.055c-0.5 0.60156-0.80078 1.2031-1.1016 1.6016-0.90234 1.5039-2.5039 2.3047-4.207 2.3047-1.0039 0-1.9023-0.30078-2.707-0.80078-2.4062-1.5039-3.1055-4.6094-1.6016-6.9141 0.30078-0.60156 0.80078-1.2031 1.4023-2.1055 2.2031-3.207 6.1133-8.6172 8.6172-15.832 0.40234-3.0078 0.90234-5.7109 1.4023-8.1172 1.3008 4.4102 4.6094 6.8125 7.6133 9.1172 0.30078 0.19922 0.60156 1.0039 0.80078 1.4023-3.0078 9.5234-7.7148 15.738-10.219 19.344zm43.086-43.387c-0.30078 2.0039-2.0039 3.4062-4.0078 3.4062h-0.5c-9.2188-1.1016-15.43-3.1055-19.641-7.8164-0.60156 4.1094-1.5039 8.8164-2.707 13.629 8.7188 11.324 11.121 23.75 12.223 29.359 0.19922 0.80078 0.30078 1.5039 0.40234 2.0039 0.70312 2.707-0.90234 5.2109-3.6055 5.9102-0.40234 0.19922-0.80078 0.19922-1.2031 0.19922-2.2031 0-4.0078-1.4023-4.6094-3.707-0.10156-0.70313-0.30078-1.6016-0.5-2.6055-0.5-2.6055-1.3008-6.6133-2.8047-11.023-1.6016-2.6055-3.1055-5.1094-4.5078-7.4141 0 0-0.5-0.80078-0.80078-1.0039-4.5078-3.3047-8.918-6.2109-7.2148-14.828v-0.19922c0.30078-6.9141 1.0039-13.527 2.0039-19.738-6.8125 2.0039-7.7148 6.3125-8.2148 18.438-0.10156 2.1055-1.9023 3.8086-4.0078 3.8086h-0.19922c-2.2031-0.10156-3.9062-2.0039-3.8086-4.207 0.60156-14.629 2.3047-24.449 19.84-26.953 1.3008-0.19922 2.6055-0.30078 4.0078-0.40234h0.19922 0.40234c3.6055 0 6.7148 2.5039 7.5156 5.8125 0.10156 0 0.10156 0.10156 0.10156 0.10156 0.19922 0.70312 0.40234 1.3008 0.5 1.7031 2.3047 7.6133 5.5117 9.5195 17.836 11.023 2.2969 0.19531 3.8008 2.1992 3.3008 4.5039z"/>
<text x="0.0" y="117.5" font-size="5.0" font-weight="bold" font-family="Arbeit Regular, Helvetica, Arial-Unicode, Arial, Sans-serif" fill="#000000">Created by Zach Hainsworth</text><text x="0.0" y="122.5" font-size="5.0" font-weight="bold" font-family="Arbeit Regular, Helvetica, Arial-Unicode, Arial, Sans-serif" fill="#000000">from Noun Project</text></svg>