<svg xmlns="http://www.w3.org/2000/svg" version="1.1" viewBox="-5.0 -10.0 110.0 135.0">
 <path d="m28.125 6.25c-5.1758 0-9.375 4.1992-9.375 9.375 0 2.7734 1.2109 5.2539 3.125 6.9688v54.812c-1.9141 1.7148-3.125 4.1953-3.125 6.9688 0 5.1758 4.1992 9.375 9.375 9.375h43.75c5.1758 0 9.375-4.1992 9.375-9.375 0-2.7734-1.2109-5.2539-3.125-6.9688v-54.812c1.9141-1.7148 3.125-4.1953 3.125-6.9688 0-5.1758-4.1992-9.375-9.375-9.375zm0 6.25h43.75c1.7266 0 3.125 1.3984 3.125 3.125s-1.3984 3.125-3.125 3.125h-43.75c-1.7266 0-3.125-1.3984-3.125-3.125s1.3984-3.125 3.125-3.125zm0 12.5h43.75v15.625h-9.3828c-2.8477-3.793-7.3828-6.25-12.492-6.25s-9.6484 2.457-12.5 6.25h-9.375zm21.875 15.625c3.4688 0 6.5039 1.8906 8.125 4.6953 0.55859 0.96484 1.5859 1.5547 2.7031 1.5547h11.047v6.25h-11.047c-1.1172 0-2.1445 0.58984-2.7031 1.5547-1.6211 2.8047-4.6562 4.6953-8.125 4.6953s-6.5039-1.8906-8.125-4.6953c-0.55859-0.96484-1.5859-1.5547-2.7031-1.5547h-11.047v-6.25h11.047c1.1172 0 2.1445-0.58984 2.7031-1.5547 1.6211-2.8047 4.6562-4.6953 8.125-4.6953zm-21.875 18.75h9.3828c2.8477 3.793 7.3828 6.25 12.492 6.25s9.6484-2.457 12.5-6.25h9.375v15.625h-43.75zm0 21.875h43.75c1.7266 0 3.125 1.3984 3.125 3.125s-1.3984 3.125-3.125 3.125h-43.75c-1.7266 0-3.125-1.3984-3.125-3.125s1.3984-3.125 3.125-3.125z" fill-rule="evenodd"/>
<text x="0.0" y="117.5" font-size="5.0" font-weight="bold" font-family="Arbeit Regular, Helvetica, Arial-Unicode, Arial, Sans-serif" fill="#000000">Created by Ardiansyah</text><text x="0.0" y="122.5" font-size="5.0" font-weight="bold" font-family="Arbeit Regular, Helvetica, Arial-Unicode, Arial, Sans-serif" fill="#000000">from Noun Project</text></svg>