<svg xmlns="http://www.w3.org/2000/svg" version="1.1" viewBox="-5.0 -10.0 110.0 135.0">
 <path d="m81.148 98.352c-0.85938 0-1.5508-0.69141-1.5508-1.5508v-53.23c0-4.2188-0.78125-8.3008-2.3203-12.121l-6.9414-17.199-5 13.199c-3.0781 8.1602-4.6406 16.809-4.6406 25.719v43.629c0 0.85938-0.69141 1.5508-1.5508 1.5508s-1.5508-0.69141-1.5508-1.5508v-43.629c0-9.2812 1.6289-18.301 4.8398-26.82l6.4102-16.91c0.23047-0.60156 0.80078-1 1.4297-1 0.64844-0.03125 1.2188 0.37891 1.4609 0.96875l8.4297 20.871c1.6914 4.1992 2.5508 8.6719 2.5508 13.281v53.23c0 0.85938-0.69141 1.5508-1.5508 1.5508z"/>
 <path d="m70.289 11.531h-16.93c-0.85938 0-1.5508-0.69141-1.5508-1.5508s0.69141-1.5508 1.5508-1.5508h16.93c0.85938 0 1.5508 0.69141 1.5508 1.5508s-0.69141 1.5508-1.5508 1.5508z"/>
 <path d="m81.141 98.34h-62.289c-0.85937 0-1.5508-0.69141-1.5508-1.5508v-46.09c0-9.3281 1.6484-18.41 4.9102-27l5.4609-14.281c0.23047-0.60156 0.80859-1 1.4492-1h15.898c0.85938 0 1.5508 0.69141 1.5508 1.5508s-0.69141 1.5508-1.5508 1.5508h-14.84l-5.0781 13.281c-3.1211 8.2305-4.7109 16.941-4.7109 25.891v44.539h60.73c0.85938 0 1.5508 0.69141 1.5508 1.5508s-0.69141 1.5508-1.5508 1.5508z"/>
 <path d="m70.281 11.531c-0.83984 0-1.5312-0.67188-1.5508-1.5195l-0.10938-5.2617h-37.949v5.2305c0 0.85938-0.69141 1.5508-1.5508 1.5508s-1.5508-0.69141-1.5508-1.5508v-6.7695c0-0.85938 0.69141-1.5508 1.5508-1.5508h41.02c0.83984 0 1.5312 0.67188 1.5508 1.5195l0.14062 6.7812c0.019531 0.85937-0.66016 1.5703-1.5195 1.5781h-0.03125z"/>
 <path d="m39.238 53.199c-0.28906 0-0.57031-0.078125-0.82031-0.23828-0.25-0.16016-6.2109-3.9609-6.2109-9 0-5.0391 5.9609-8.8398 6.2109-9 0.5-0.32031 1.1484-0.32031 1.6484 0 0.25 0.16016 6.2109 3.9609 6.2109 9 0 5.0391-5.9492 8.8398-6.2109 9-0.25 0.16016-0.53906 0.23828-0.82031 0.23828zm0-15.027c-1.5586 1.1914-3.9297 3.5-3.9297 5.7891 0 2.2891 2.3711 4.6016 3.9297 5.7891 1.5586-1.1914 3.9297-3.5 3.9297-5.7891 0-2.2891-2.3711-4.6016-3.9297-5.7891z"/>
 <path d="m35.512 61.531c-2.2891 0-5.1289-0.44922-7.0312-2.3516-3.5703-3.5703-2.0391-10.461-1.9688-10.762 0.12891-0.57812 0.58984-1.0312 1.1719-1.1719 0.28906-0.070313 7.1914-1.5898 10.75 1.9688 3.5703 3.5703 2.0391 10.461 1.9688 10.75-0.12891 0.57812-0.58984 1.0312-1.1719 1.1719-0.14062 0.03125-1.7188 0.37891-3.7188 0.37891zm3.3789-1.8906h0.019531zm-9.5312-9.5391c-0.26172 1.9492-0.30859 5.2617 1.3086 6.8789 1.6211 1.6211 4.9297 1.5703 6.8789 1.3203 0.26172-1.9492 0.30859-5.25-1.3203-6.8711-1.6289-1.6289-4.9414-1.5781-6.8711-1.3203z"/>
 <path d="m42.961 61.531c-2.0117 0-3.5781-0.35156-3.7188-0.37891-0.57813-0.12891-1.0312-0.58984-1.1719-1.1719-0.070312-0.28906-1.5898-7.1914 1.9688-10.762 3.5703-3.5703 10.461-2.0391 10.75-1.9688 0.57813 0.12891 1.0312 0.58984 1.1719 1.1719 0.070312 0.28906 1.5898 7.1914-1.9688 10.762-1.8984 1.8984-4.75 2.3594-7.0312 2.3594zm-2.0391-3.2305c1.9492 0.26172 5.2617 0.30859 6.8789-1.3203 1.6211-1.6289 1.5703-4.9297 1.3203-6.8711-1.9492-0.26172-5.25-0.30859-6.8789 1.3203-1.6289 1.6289-1.5781 4.9297-1.3203 6.8711zm0.21875-7.9727h0.019531z"/>
 <path d="m35.512 72.789c-2.2891 0-5.1289-0.44922-7.0312-2.3516-3.5703-3.5703-2.0391-10.461-1.9688-10.762 0.12891-0.57812 0.58984-1.0312 1.1719-1.1719 0.28906-0.070312 7.1914-1.5898 10.75 1.9688 3.5703 3.5703 2.0391 10.461 1.9688 10.75-0.12891 0.57812-0.58984 1.0312-1.1719 1.1719-0.14062 0.03125-1.7188 0.37891-3.7188 0.37891zm3.3789-1.8984h0.019531zm-9.5312-9.5312c-0.26172 1.9492-0.30859 5.2617 1.3086 6.8789 1.6211 1.6211 4.9297 1.5703 6.8789 1.3203 0.26172-1.9492 0.30859-5.25-1.3203-6.8711-1.6289-1.6289-4.9414-1.5781-6.8711-1.3203z"/>
 <path d="m42.961 72.789c-2.0117 0-3.5781-0.35156-3.7188-0.37891-0.57813-0.12891-1.0312-0.58984-1.1719-1.1719-0.070312-0.28906-1.5898-7.1914 1.9688-10.762 3.5703-3.5703 10.461-2.0391 10.75-1.9688 0.57813 0.12891 1.0312 0.58984 1.1719 1.1719 0.070312 0.28906 1.5898 7.1914-1.9688 10.762-1.8984 1.8984-4.75 2.3594-7.0312 2.3594zm-2.0391-3.2383c1.9492 0.26172 5.2617 0.30859 6.8789-1.3203 1.6211-1.6211 1.5703-4.9297 1.3203-6.8711-1.9492-0.26172-5.25-0.30859-6.8789 1.3203-1.6289 1.6289-1.5781 4.9297-1.3203 6.8711zm0.21875-7.9727h0.019531z"/>
 <path d="m39.238 81.91c-0.85938 0-1.5508-0.69141-1.5508-1.5508v-28.441c0-0.85938 0.69141-1.5508 1.5508-1.5508s1.5508 0.69141 1.5508 1.5508v28.441c0 0.85938-0.69141 1.5508-1.5508 1.5508z"/>
 <path d="m45.02 20.762c-0.30078 0-0.60156-0.089844-0.85938-0.26172-0.42969-0.28906-0.69141-0.76953-0.69141-1.2891v-16c0-0.85938 0.69141-1.5508 1.5508-1.5508s1.5508 0.69141 1.5508 1.5508v13.66l2.4492-1.0312c0.42969-0.17969 0.91016-0.16016 1.3203 0.050781l1.4609 0.76172v-13.441c0-0.85938 0.69141-1.5508 1.5508-1.5508 0.85938 0 1.5508 0.69141 1.5508 1.5508v16c0 0.53906-0.28125 1.0508-0.75 1.3281-0.46875 0.28125-1.0391 0.30078-1.5195 0.050782l-3.0781-1.6016-3.9297 1.6602c-0.19141 0.078124-0.39844 0.12109-0.60156 0.12109z"/>
<text x="0.0" y="117.5" font-size="5.0" font-weight="bold" font-family="Arbeit Regular, Helvetica, Arial-Unicode, Arial, Sans-serif" fill="#000000">Created by Zeer Graphic</text><text x="0.0" y="122.5" font-size="5.0" font-weight="bold" font-family="Arbeit Regular, Helvetica, Arial-Unicode, Arial, Sans-serif" fill="#000000">from Noun Project</text></svg>