<svg xmlns="http://www.w3.org/2000/svg" version="1.1" viewBox="-5.0 -10.0 110.0 135.0">
 <path d="m58.945 20.785c1.8789 0.57422 3.6797 1.3242 5.3867 2.2344l13.586-8.168 7.2383 7.2383-8.168 13.582c0.91016 1.707 1.6602 3.5078 2.2344 5.3867l15.379 3.8281v10.238l-15.379 3.8281c-0.57422 1.8789-1.3242 3.6797-2.2344 5.3867l8.168 13.586-7.2383 7.2383-13.582-8.168c-1.707 0.91016-3.5078 1.6602-5.3867 2.2344l-3.8281 15.379h-10.238l-3.8281-15.379c-1.8789-0.57422-3.6797-1.3242-5.3867-2.2344l-13.586 8.168-7.2383-7.2383 8.168-13.582c-0.91016-1.707-1.6602-3.5078-2.2344-5.3867l-15.375-3.8398v-10.238l15.379-3.8281c0.57422-1.8789 1.3242-3.6797 2.2344-5.3867l-8.168-13.586 7.2383-7.2383 13.586 8.168c1.707-0.90625 3.5078-1.6602 5.3867-2.2344l3.8281-15.379h10.238zm-5.3594 25.816h-7.1758c-1.043 0-1.8984-0.85547-1.8984-1.8984v-7.1992c-2.3516 1.7031-3.8828 4.4688-3.8828 7.5977 0 3.8633 2.3359 7.1797 5.6758 8.6133v7.1367c0 0.90625 0.74219 1.6484 1.6484 1.6484h4.0938c0.90625 0 1.6484-0.74219 1.6484-1.6484v-7.1367c3.3398-1.4336 5.6758-4.75 5.6758-8.6133 0-3.125-1.5312-5.8945-3.8828-7.5977v7.1992c-0.003906 1.043-0.85547 1.8984-1.9023 1.8984zm-3.5859-14.234c-9.7383 0-17.633 7.8945-17.633 17.633s7.8945 17.633 17.633 17.633 17.633-7.8945 17.633-17.633-7.8945-17.633-17.633-17.633z" fill-rule="evenodd"/>
<text x="0.0" y="117.5" font-size="5.0" font-weight="bold" font-family="Arbeit Regular, Helvetica, Arial-Unicode, Arial, Sans-serif" fill="#000000">Created by Dava Arya Ditya</text><text x="0.0" y="122.5" font-size="5.0" font-weight="bold" font-family="Arbeit Regular, Helvetica, Arial-Unicode, Arial, Sans-serif" fill="#000000">from Noun Project</text></svg>