<svg xmlns="http://www.w3.org/2000/svg" version="1.1" viewBox="-5.0 -10.0 110.0 135.0">
 <path d="m11.621 56.262c0.51172-0.21094 0.75391-0.79297 0.54297-1.3047-0.62109-1.5078-0.9375-3.1016-0.9375-4.75 0-6.8711 5.5898-12.461 12.461-12.461 1.7344 0 3.3867 0.35938 4.8867 1l-5.7695 10.992c-0.15625 0.29297-0.15234 0.64453 0.003906 0.9375s0.44922 0.48828 0.77734 0.52344l12.332 1.2812c-0.61719 3.3359-2.5469 6.3008-5.4609 8.1914-0.46484 0.30078-0.59375 0.91797-0.29688 1.3828 0.19141 0.29297 0.51172 0.45703 0.83984 0.45703 0.1875 0 0.375-0.050781 0.54297-0.16016 3.4297-2.2227 5.707-5.7227 6.3867-9.6602l4.1055 0.42578c0.14844 2.7812 2.0742 5.0898 4.6641 5.8125l-0.30859 2.6836h-2.332c-0.55078 0-1 0.44922-1 1s0.44922 1 1 1l6.4531-0.003906c0.55078 0 1-0.44922 1-1s-0.44922-1-1-1h-2.1016l0.28125-2.457c3.3984-0.14453 6.1211-2.9492 6.1211-6.3828 0-1.2773-0.38281-2.4688-1.0312-3.4688l15.387-14.98 1.0625 2.7812c-4.9414 2.3008-8.3828 7.3008-8.3828 13.102 0 4.9219 2.4688 9.4609 6.6055 12.145 0.16797 0.10938 0.35547 0.16016 0.54297 0.16016 0.32812 0 0.64844-0.16016 0.83984-0.45703 0.30078-0.46484 0.16797-1.082-0.29297-1.3828-3.5664-2.3086-5.6953-6.2227-5.6953-10.465 0-4.9492 2.9062-9.2188 7.0977-11.23l4.4297 11.586c0.15234 0.39844 0.53125 0.64453 0.93359 0.64453 0.11719 0 0.23828-0.023437 0.35547-0.066406 0.51563-0.19922 0.77344-0.77734 0.57813-1.2891l-4.4336-11.594c1.1133-0.32812 2.2852-0.50781 3.5-0.50781 6.8711 0 12.461 5.5898 12.461 12.461 0 1.6445-0.31641 3.2422-0.9375 4.75-0.21094 0.51172 0.03125 1.0938 0.54297 1.3047 0.51172 0.20703 1.0938-0.03125 1.3047-0.54297 0.72266-1.75 1.0898-3.6055 1.0898-5.5117 0-7.9727-6.4883-14.461-14.461-14.461-1.4688 0-2.8828 0.22266-4.2188 0.63281l-1.6016-4.1875c0-0.003906-0.003906-0.007812-0.003906-0.007812l-4.2969-11.254c-0.24219-0.64063-0.019531-1.3516 0.55469-1.7344l1.2031-0.80078c1.3125-0.875 1.832-2.5156 1.2617-3.9883-0.50391-1.2969-1.7266-2.1367-3.1172-2.1367h-8.9766c-0.55078 0-1 0.44922-1 1s0.44922 1 1 1h8.9766c0.55859 0 1.0469 0.33594 1.25 0.85547 0.23047 0.58984 0.019531 1.25-0.50781 1.6016l-1.2031 0.80078c-1.3516 0.90234-1.8945 2.5938-1.3125 4.1133l2.3672 6.1914-31.133 0.003907-1.7461-3.5586h3.4258c0.55078 0 1-0.44922 1-1 0-0.55078-0.44922-1-1-1h-6.9922c-1.2109 0-2.3594-0.58203-3.0781-1.5547l-0.51172-0.69531c-0.32813-0.44531-0.95313-0.53906-1.3984-0.21094s-0.53906 0.95312-0.21094 1.3984l0.51172 0.69531c1.0938 1.4805 2.8438 2.3672 4.6875 2.3672h1.3398l2.2188 4.5234-4.293 8.1719c-1.7812-0.78516-3.7461-1.2305-5.8164-1.2305-7.9727 0-14.461 6.4883-14.461 14.461 0 1.9102 0.36719 3.7656 1.0898 5.5117 0.21094 0.51172 0.79297 0.75781 1.3047 0.54688zm13.641-6.8984 5.082-9.6758c3.4844 2.2109 5.8086 6.0938 5.8086 10.52 0 0.097657-0.015625 0.19141-0.019532 0.28516zm23.664 7.7539 0.48438-4.2305c0.0625-0.54688-0.33203-1.043-0.87891-1.1055-0.54297-0.070312-1.043 0.33203-1.1094 0.87891l-0.48828 4.2344c-1.6953-0.60938-2.9141-2.2188-2.9141-4.1211 0-2.4219 1.9727-4.3945 4.3945-4.3945 2.4258 0 4.3945 1.9727 4.3945 4.3945 0.003906 2.25-1.7031 4.0859-3.8828 4.3438zm18.527-27.281 0.9375 2.4531-15.941 15.523c-0.69141-0.5625-1.5-0.97656-2.3867-1.2148l0.35938-2.6641h2.3516c0.55078 0 1-0.44922 1-1 0-0.55078-0.44922-1-1-1h-6.4492c-0.55078 0-1 0.44922-1 1 0 0.55078 0.44922 1 1 1h2.0781l-0.33203 2.4609c-1.082 0.058594-2.0938 0.38672-2.9688 0.91797l-8.5703-17.477zm-32.566 1.1914 8.6445 17.625c-0.59766 0.71094-1.043 1.5508-1.2891 2.4727l-4.1094-0.42578c0.003907-0.16406 0.015626-0.32812 0.015626-0.49219 0-5.1914-2.7578-9.7383-6.8789-12.289z"/>
 <path d="m92.875 78.016h-11.617c-0.85937 0-1.6484-0.46875-2.0508-1.2305l-0.22656-0.42578c-1.1914-2.2266-1.1914-4.8867 0-7.1133l0.22656-0.42578c0.40625-0.75781 1.1914-1.2266 2.0508-1.2266h11.617c0.92578 0 1.7578-0.51953 2.168-1.3516 0.40625-0.82031 0.31641-1.7734-0.23438-2.4922-3.2148-4.207-8.2891-6.3633-13.57-5.7734-3.8281 0.42969-7.4336 2.4258-9.8945 5.4805-1.3711 1.6992-3.5039 2.6758-5.8477 2.6758l-30.977-0.003906c-2.3398 0-4.4805-0.98828-5.8789-2.7148-2.8516-3.5195-7.0781-5.5391-11.602-5.5391-4.6523 0-8.957 2.1211-11.805 5.8164-0.57422 0.74219-0.67188 1.7227-0.26172 2.5586 0.40625 0.82812 1.2305 1.3398 2.1523 1.3398h11.617c0.85937 0 1.6484 0.46875 2.0547 1.2266l0.22656 0.42578c1.1914 2.2266 1.1914 4.8867 0 7.1133l-0.22656 0.42188c-0.40625 0.75781-1.1953 1.2305-2.0547 1.2305l-11.617 0.007813c-0.92578 0-1.7578 0.51953-2.168 1.3516-0.40625 0.81641-0.31641 1.7734 0.23438 2.4922 3.2148 4.207 8.2812 6.3633 13.57 5.7734 3.8281-0.42969 7.4336-2.4258 9.8945-5.4805 1.3711-1.6992 3.5-2.6758 5.8477-2.6758h30.977c2.3398 0 4.4805 0.98828 5.8789 2.7148 2.8516 3.5195 7.0781 5.5391 11.602 5.5391 4.6523 0 8.957-2.1211 11.805-5.8164 0.57422-0.74219 0.67188-1.7227 0.26172-2.5586-0.40234-0.82812-1.2305-1.3398-2.1523-1.3398zm0.30859 2.6758c-2.4688 3.2031-6.1953 5.0352-10.223 5.0352-3.9141 0-7.5781-1.75-10.047-4.7969-1.7773-2.1953-4.4883-3.4531-7.4336-3.4531h-30.977c-2.957 0-5.6562 1.2461-7.4062 3.418-2.1328 2.6484-5.2539 4.3789-8.5586 4.7461-4.5742 0.51953-8.9727-1.3516-11.758-5-0.11328-0.14844-0.078125-0.29297-0.03125-0.39062 0.035156-0.070312 0.14453-0.23828 0.375-0.23828h11.617c1.5977 0 3.0625-0.875 3.8164-2.2852l0.22656-0.42578c1.5117-2.8203 1.5117-6.1836 0-9l-0.22656-0.42578c-0.75391-1.4102-2.2188-2.2852-3.8164-2.2852l-11.617 0.003906c-0.21875 0-0.32031-0.14062-0.35938-0.22266-0.035156-0.070313-0.10156-0.26172 0.050781-0.45703 2.4688-3.2031 6.1953-5.0352 10.223-5.0352 3.918 0 7.5781 1.7461 10.047 4.7969 1.7773 2.1953 4.4883 3.457 7.4336 3.457h30.977c2.957 0 5.6562-1.2461 7.4062-3.418 2.1328-2.6484 5.2539-4.3789 8.5586-4.7461 4.5859-0.51562 8.9727 1.3516 11.758 5 0.11328 0.14844 0.082031 0.29297 0.03125 0.39062-0.035156 0.070313-0.14453 0.23828-0.375 0.23828l-11.617-0.003906c-1.5977 0-3.0625 0.875-3.8164 2.2852l-0.22656 0.42578c-1.5078 2.8164-1.5078 6.1836 0 9l0.22656 0.42578c0.75391 1.4102 2.2188 2.2852 3.8164 2.2852h11.617c0.21875 0 0.32031 0.14062 0.35938 0.21875 0.035156 0.074219 0.10156 0.26172-0.050781 0.45703z"/>
 <path d="m67.699 71.805h-35.398c-0.55078 0-1 0.44922-1 1 0 0.55078 0.44922 1 1 1h35.402c0.55078 0 1-0.44922 1-1-0.003906-0.55469-0.44922-1-1.0039-1z"/>
<text x="0.0" y="117.5" font-size="5.0" font-weight="bold" font-family="Arbeit Regular, Helvetica, Arial-Unicode, Arial, Sans-serif" fill="#000000">Created by Elena Babushkina</text><text x="0.0" y="122.5" font-size="5.0" font-weight="bold" font-family="Arbeit Regular, Helvetica, Arial-Unicode, Arial, Sans-serif" fill="#000000">from Noun Project</text></svg>