<svg xmlns="http://www.w3.org/2000/svg" xmlns:xlink="http://www.w3.org/1999/xlink" version="1.1" x="0px" y="0px" viewBox="0 0 48 60" style="enable-background:new 0 0 48 48;" xml:space="preserve"><path d="M36.899,17.793C38.763,16.534,40,14.414,40,12c0-3.86-3.14-7-7-7s-7,3.14-7,7c0,2.413,1.238,4.529,3.101,5.788  c-2.228,0.942-4.046,2.671-5.101,4.86c-1.056-2.19-2.876-3.916-5.105-4.858C20.76,16.532,22,14.415,22,12c0-3.86-3.14-7-7-7  s-7,3.14-7,7c0,2.416,1.242,4.535,3.109,5.793C7.523,19.314,5,22.866,5,27v16h2V27c0-4.411,3.589-8,8-8  c3.745,0,6.922,2.574,7.769,6.128C20.049,25.697,18,28.113,18,31c0,2.038,1.03,3.83,2.587,4.915C18.455,37.116,17,39.383,17,42v1h2  v-1c0-2.757,2.243-5,5-5s5,2.243,5,5v1h2v-1c0-2.617-1.455-4.886-3.588-6.087C28.97,34.828,30,33.038,30,31  c0-2.887-2.049-5.303-4.769-5.872C26.078,21.574,29.255,19,33,19c4.411,0,8,3.589,8,8v16h2V27  C43,22.869,40.481,19.316,36.899,17.793z M15,7c2.757,0,5,2.243,5,5s-2.243,5-5,5s-5-2.243-5-5S12.243,7,15,7z M28,31  c0,2.206-1.794,4-4,4s-4-1.794-4-4s1.794-4,4-4S28,28.794,28,31z M33,7c2.757,0,5,2.243,5,5s-2.243,5-5,5s-5-2.243-5-5  S30.243,7,33,7z"/><text x="0" y="63" fill="#000000" font-size="5px" font-weight="bold" font-family="'Helvetica Neue', Helvetica, Arial-Unicode, Arial, Sans-serif">Created by AbtoCreative</text><text x="0" y="68" fill="#000000" font-size="5px" font-weight="bold" font-family="'Helvetica Neue', Helvetica, Arial-Unicode, Arial, Sans-serif">from the Noun Project</text></svg>