<svg xmlns="http://www.w3.org/2000/svg" version="1.1" viewBox="-5.0 -10.0 110.0 135.0">
 <path d="m91.242 18.82c-0.40625-0.40625-1.0664-0.40625-1.4727 0l-9.0859 9.0859-4.418-4.418 9.082-9.0859c0.40625-0.40625 0.40625-1.0664 0-1.4727l-1.875-1.875c-0.26172-0.26172-0.64453-0.36719-1.0078-0.26953l-13.16 3.5352c-0.37109 0.10156-0.65625 0.39453-0.74609 0.76953l-3.0664 13.273-11.625 11.625-1.8164-1.668c-2.875-2.6406-5.7461-5.2773-8.6289-7.9023 2.6055-2.4492 2.1953-4.4531 1.8906-5.957-0.25781-1.25-0.37109-1.8164 1.0625-2.7539 2.6953-1.7578 5.4492-2.0117 7.4609-2.1992 1.7773-0.16406 3.6133-0.33594 3.6914-2.0664 0.023437-0.625-0.26172-1.8203-1.1406-2.3633-5.9023-3.582-13.035-4.2852-20.07-1.9766-2.9062 0.94531-4.9414 2.1914-6.6094 4.0859-1.0156-0.76953-2.3906-1.457-3.6758-0.38672-2.1055 1.7305-3.9688 3.7148-5.5195 5.4297-1.0703 1.1953-0.35938 2.6094 0.0625 3.4531 0.070312 0.14453 0.16406 0.32812 0.23438 0.48828-2.2031 2.6172-2.1094 4.0508-1.793 5.3984 0.15625 0.66406 0.25 1.0625-1.8984 2.5664-0.36719 0.25391-0.82422 0.14062-1.7109-0.15234-0.53125-0.17969-1.0859-0.36328-1.6797-0.37891-0.007812 0-0.023437 0.003906-0.03125 0.003906-0.027343 0-0.054687 0.007813-0.085937 0.011719-0.082031 0.007812-0.16406 0.027344-0.25 0.054687-0.035156 0.011719-0.070313 0.019531-0.10156 0.035157-0.011718 0.003906-0.023437 0.007812-0.035156 0.011718-1.5703 0.81641-2.7344 2.1602-3.8633 3.4609-0.44531 0.51562-0.88281 1.0234-1.332 1.4727-0.48438 0.47656-0.74219 1.0742-0.74219 1.7227 0 1.1875 0.875 2.2227 1.3945 2.7344l10.75 10.543c0.19922 0.19531 0.46484 0.29688 0.73047 0.29688 0.17969 0 0.35938-0.046875 0.52344-0.14062 1.1523-0.67188 6.4336-5.1836 6.6211-6.8828 0.042968-0.34766-0.019532-0.64063-0.12109-0.90234 0-0.003906-0.003906-0.007813-0.003906-0.011719-0.12891-0.33203-0.32422-0.60938-0.48828-0.83203-0.16016-0.21094-0.29297-0.39062-0.35547-0.59766-0.12109-0.38672 0.16406-1.5742 0.8125-2.418 0.32422-0.42578 0.60937-0.63281 0.79687-0.60156 2.3945 0.089844 4.5586-0.027344 6.3516-2.1055l0.55859 0.58203c3.0859 3.2227 6.1797 6.4531 9.2656 9.6836l-11.598 11.598-13.273 3.0664c-0.375 0.085937-0.67188 0.37109-0.77344 0.74609l-3.5352 13.16c-0.097656 0.35938 0.007813 0.74219 0.26953 1.0078l1.875 1.875c0.40625 0.40625 1.0664 0.40625 1.4727 0l8.1016-8.1016 4.418 4.418-8.1016 8.1016c-0.40625 0.40625-0.40625 1.0664 0 1.4727l1.875 1.875c0.19922 0.19922 0.46484 0.30469 0.73828 0.30469 0.089844 0 0.17969-0.011719 0.26953-0.035156l13.16-3.5352c0.37109-0.10156 0.65625-0.39453 0.74609-0.76953l3.0664-13.273 10.992-10.992 21.613 24.484c0.089844 0.12109 2.1797 3.0078 5.375 3.7539 0.65625 0.15625 1.293 0.22266 1.8984 0.22266 4.0156 0 6.8008-2.9414 6.7969-2.9414 1.3711-1.2617 2.2461-3.4609 2.2891-5.7422 0.039063-2.0391-0.56641-3.7852-1.7109-4.9219-8.3281-8.1992-16.688-16.398-25.027-24.586l-0.76172-0.74609 11.504-11.504 13.273-3.0664c0.375-0.085937 0.67188-0.37109 0.77344-0.74609l3.5352-13.16c0.097657-0.35938-0.007812-0.74219-0.26953-1.0078l-1.875-1.875zm-70.957 32.754-10.137-9.9414c-0.53125-0.52344-0.77344-1.0039-0.77344-1.25 0-0.058593 0.007812-0.12891 0.125-0.24219 0.48828-0.48828 0.96094-1.0312 1.4414-1.5859 0.82812-0.95313 1.6836-1.918 2.6445-2.5859l11.539 10.855c-0.64062 0.99219-3.2812 3.5703-4.8359 4.75zm13.023-14.277c-1.3555 2.1758-2.9023 2.2812-5.2773 2.1914-0.90234-0.035156-1.8047 0.46484-2.5352 1.4141-0.48047 0.62891-0.90234 1.4961-1.1133 2.3633l-7.3633-6.9297c0.42578-0.050782 0.85938-0.1875 1.2891-0.48438 2.8203-1.9727 3.1328-3.1055 2.7422-4.7578-0.19141-0.80469-0.38672-1.6367 1.6875-3.957 0.18359-0.20703 0.27734-0.47656 0.26172-0.75-0.03125-0.57812-0.30078-1.1133-0.55859-1.6289-0.19922-0.39453-0.49609-0.99219-0.375-1.1289 1.4961-1.6562 3.293-3.5703 5.2969-5.2148 0.32031-0.26562 1.2812 0.58203 1.8008 1.0391 0.21875 0.19141 0.51563 0.27734 0.79297 0.25391 0.28906-0.027343 0.55078-0.17578 0.72656-0.40625 1.543-2.0391 3.3633-3.2578 6.2852-4.207 6.4492-2.1172 12.965-1.4883 18.309 1.7539 0.054687 0.054688 0.11328 0.21484 0.14844 0.35156-0.35547 0.11328-1.1367 0.18359-1.7773 0.24219-2.1016 0.19531-5.2773 0.48828-8.4062 2.5273-2.625 1.7109-2.2461 3.5625-1.9648 4.918 0.29297 1.4297 0.54688 2.668-2.0625 4.6875-0.015625 0.011719-0.023438 0.03125-0.039063 0.046875-0.019531 0.015625-0.042969 0.023437-0.0625 0.039062l-7.125 7.1094c-0.03125 0.03125-0.042969 0.074219-0.070312 0.10938-0.24609 0.070313-0.46875 0.20703-0.60547 0.42578zm3.0547 1.3086-0.62109-0.64844 6.1367-6.125c2.9297 2.668 5.8438 5.3398 8.7656 8.0234l1.75 1.6055-6.7969 6.7969c-3.0742-3.2188-6.1562-6.4414-9.2344-9.6523zm27.242 13.805c8.3438 8.1875 16.699 16.387 25.023 24.582 0.72266 0.71875 1.1172 1.957 1.0938 3.3984-0.03125 1.707-0.66797 3.375-1.6758 4.3086-0.027344 0.03125-2.9258 3.0664-6.75 2.168-2.418-0.56641-4.1406-2.918-4.2227-3.0234l-21.766-24.668 7.5234-7.5234 0.77344 0.76172zm24.395-18.691-12.953 2.9922c-0.19141 0.042968-0.36328 0.14062-0.5 0.27734l-12.453 12.453c-0.003906 0.003906-0.011719 0.007813-0.015625 0.011719s-0.003906 0.011719-0.007813 0.015625l-8.875 8.875c-0.003906 0-0.003906 0.003906-0.007812 0.003906-0.003906 0.003906-0.003906 0.007813-0.007812 0.011719l-12.023 12.023c-0.13672 0.13672-0.23438 0.3125-0.27734 0.5l-2.9922 12.953-11.973 3.2188-0.71484-0.71484 8.1016-8.1016c0.40625-0.40625 0.40625-1.0664 0-1.4727l-5.8906-5.8945c-0.39062-0.39062-1.082-0.39062-1.4727 0l-8.1016 8.1016-0.71484-0.71484 3.2188-11.977 12.953-2.9922c0.19141-0.042968 0.36328-0.14062 0.5-0.27734l12.5-12.5c0.003906-0.003907 0.011719-0.003907 0.015625-0.007813s0.007812-0.011718 0.011718-0.015625l8.3438-8.3398c0.003907-0.003907 0.007813-0.003907 0.011719-0.011719 0.003907-0.003907 0.003907-0.007813 0.003907-0.007813l12.504-12.504c0.13672-0.13672 0.23438-0.3125 0.27734-0.5l2.9922-12.953 11.973-3.2188 0.71484 0.71484-9.082 9.0859c-0.40625 0.40625-0.40625 1.0664 0 1.4727l5.8906 5.8945c0.39062 0.39062 1.082 0.39062 1.4727 0l9.0859-9.0859 0.71484 0.71484-3.2188 11.977z"/>
<text x="0.0" y="117.5" font-size="5.0" font-weight="bold" font-family="Arbeit Regular, Helvetica, Arial-Unicode, Arial, Sans-serif" fill="#000000">Created by Anggara Putra</text><text x="0.0" y="122.5" font-size="5.0" font-weight="bold" font-family="Arbeit Regular, Helvetica, Arial-Unicode, Arial, Sans-serif" fill="#000000">from Noun Project</text></svg>