<svg xmlns="http://www.w3.org/2000/svg" width="900" height="300" viewBox="0 0 900 300" role="img" aria-label="Map placeholder">
  <defs>
    <linearGradient id="bg" x1="0" x2="1" y1="0" y2="1">
      <stop offset="0%" stop-color="#edf1e9"/>
      <stop offset="100%" stop-color="#dce8da"/>
    </linearGradient>
  </defs>
  <rect width="900" height="300" fill="url(#bg)"/>
  <g stroke="#c3d1c0" stroke-width="8" fill="none" opacity="0.9">
    <path d="M20 65 H880"/>
    <path d="M20 130 H880"/>
    <path d="M20 205 H880"/>
    <path d="M100 15 V285"/>
    <path d="M230 15 V285"/>
    <path d="M360 15 V285"/>
    <path d="M500 15 V285"/>
    <path d="M640 15 V285"/>
    <path d="M780 15 V285"/>
  </g>
  <g fill="#92cba5" opacity="0.55">
    <circle cx="145" cy="78" r="22"/>
    <circle cx="350" cy="205" r="30"/>
    <circle cx="695" cy="95" r="25"/>
  </g>
  <path d="M560 96 L572 122 L600 125 L579 144 L585 172 L560 157 L535 172 L541 144 L520 125 L548 122 Z" fill="#ffd95b" stroke="#d6b23e" stroke-width="3"/>
</svg>
