<?xml version="1.0" encoding="UTF-8" standalone="no"?>
<svg
   version="1.1"
   x="0px"
   y="0px"
   viewBox="0 0 54 84.000031"
   id="svg2"
   width="54"
   height="84.000031"
   xmlns="http://www.w3.org/2000/svg"
   xmlns:svg="http://www.w3.org/2000/svg">
  <defs
     id="defs2" />
  <g
     transform="translate(-23,-960.36217)"
     id="g1">
    <path
       style="color:#000000;enable-background:accumulate"
       d="m 50,960.36217 c -14.9117,0 -27,12.08833 -27,27.00003 0,5.3743 3.62939,13.5974 6,18 l 21,39 21,-39 c 2.37057,-4.4025 6,-12.6257 6,-18 0,-14.9117 -12.08831,-27.00003 -27,-27.00003 z m 0,14.00003 c 7.17971,0 13,5.8204 13,13 0,7.1797 -5.82029,13 -13,13 -7.179694,0 -13,-5.8203 -13,-13 0,-7.1796 5.820306,-13 13,-13 z"
       fill="#000000"
       stroke="none"
       marker="none"
       visibility="visible"
       display="inline"
       overflow="visible"
       id="path1"
       mask="none" />
  </g>
</svg>
